# xmcd
#
# Track frame offsets: 
#        150
#        19856
#        37274
#        61047
#        80740
#        98174
#
# Disc length: 1623 seconds
#
# Revision: 0
# Processed by: cddbd v1.5.2PL0 Copyright (c) Steve Scherf et al.
# Submitted via: ExactAudioCopyFreeDBPlugin 1.0
#
DISCID=47065506
DTITLE=塩ノ谷早耶香 - Ocean Blue
DYEAR=2013
DGENRE=JPop
TTITLE0=Ocean Blue
TTITLE1=Sign
TTITLE2=True Blue
TTITLE3=Ocean Blue (Instrumental)
TTITLE4=Sign (Instrumental)
TTITLE5=True Blue (Instrumental)
EXTD=
EXTT0=
EXTT1=
EXTT2=
EXTT3=
EXTT4=
EXTT5=
PLAYORDER=
